<svg xmlns="http://www.w3.org/2000/svg" version="1.1" xmlns:xlink="http://www.w3.org/1999/xlink" xmlns:svgjs="http://svgjs.com/svgjs" width="1440" height="756" preserveAspectRatio="none" viewBox="0 0 1440 756"><g mask="url(&quot;#SvgjsMask2439&quot;)" fill="none"><rect width="1440" height="756" x="0" y="0" fill="rgba(255, 255, 255, 1)"></rect><path d="M136.77,626.303C191.817,624.788,241.019,593.565,268.105,545.619C294.742,498.468,295.421,440.727,267.985,394.036C240.902,347.945,190.226,321.55,136.77,322.114C84.296,322.668,38.084,352.259,10.265,396.755C-19.562,444.462,-34.87,503.934,-7.713,553.21C20.208,603.874,78.944,627.895,136.77,626.303" fill="rgba(165, 221, 235, 0.4)" class="triangle-float1"></path><path d="M1315.439398921897 157.94371199835027L1378.1277311287843 235.35735518855984 1462.904029810655 102.6180352831243z" fill="rgba(165, 221, 235, 0.4)" class="triangle-float3"></path><path d="M76.45226623613081 257.26701290029104L34.02996048304377 367.78089771675496 221.01194058428322 376.1574139381535z" fill="rgba(165, 221, 235, 0.4)" class="triangle-float1"></path><path d="M1080.5307808818975 336.49410299442866L1135.8632623037713 143.52680807022736 942.8959673795699 88.19432664835364 887.5634859576962 281.16162157255496z" fill="rgba(165, 221, 235, 0.4)" class="triangle-float1"></path><path d="M896.956,379.997C917.721,378.855,937.381,369.852,947.96,351.948C958.722,333.734,958.508,311.38,948.515,292.733C937.907,272.938,919.392,257.76,896.956,256.773C872.822,255.711,849.456,267.191,836.89,287.822C823.816,309.287,821.486,337.094,835.208,358.151C847.983,377.756,873.591,381.282,896.956,379.997" fill="rgba(165, 221, 235, 0.4)" class="triangle-float2"></path><path d="M699.435,779.707C742.557,778.973,782.275,756.668,804.025,719.426C825.967,681.856,827.097,635.571,805.755,597.657C784.004,559.015,743.739,531.756,699.435,533.617C657.682,535.37,628.65,569.918,607.534,605.981C586.115,642.562,568.67,685.624,588.492,723.094C609.3,762.428,654.942,780.464,699.435,779.707" fill="rgba(165, 221, 235, 0.4)" class="triangle-float2"></path><path d="M1225.5382806551618 406.2884530101401L1232.1336572063124 222.4451274453333 1088.8496825313018 295.45195904696646z" fill="rgba(165, 221, 235, 0.4)" class="triangle-float3"></path><path d="M539.8478228182826 281.7262962022004L532.6782845662536 144.9233568273412 395.8753451913945 152.09289507937007 403.0448834434234 288.89583445422926z" fill="rgba(165, 221, 235, 0.4)" class="triangle-float2"></path><path d="M1482.494,667.893C1553.261,669.154,1616.041,622.848,1648.677,560.043C1678.971,501.745,1663.702,435.242,1633.782,376.752C1600.07,310.85,1556.517,235.611,1482.494,235.179C1408.09,234.744,1360.831,308.141,1328.115,374.967C1299.942,432.513,1296.391,497.616,1326.264,554.298C1358.439,615.348,1413.495,666.663,1482.494,667.893" fill="rgba(165, 221, 235, 0.4)" class="triangle-float2"></path><path d="M1355.527450266917 585.7533640743472L1233.3807771384302 611.7164409339705 1333.3987289921085 781.954912196889z" fill="rgba(165, 221, 235, 0.4)" class="triangle-float3"></path><path d="M120.2308028507878 514.4348239315533L-10.946271935012675 559.6027130108679 34.221617144301945 690.7797877966684 165.39869193010242 645.6118987173538z" fill="rgba(165, 221, 235, 0.4)" class="triangle-float2"></path><path d="M597.9191154460696 159.93330271462574L672.1647423093309-6.8251055218301815 431.16070720961363 85.68767585136439z" fill="rgba(165, 221, 235, 0.4)" class="triangle-float1"></path><path d="M462.5122563340458 265.3968615019595L630.3385103427935 336.8237164407417 613.6724143017342 178.25640467702698z" fill="rgba(165, 221, 235, 0.4)" class="triangle-float3"></path><path d="M1145.4403434210244 227.9903729093096L1015.6074816752835 239.34927646519054 1156.7992469769054 357.82323465505056z" fill="rgba(165, 221, 235, 0.4)" class="triangle-float1"></path><path d="M968.151,854.974C1028.91,853.367,1089.913,836.601,1123.702,786.078C1161.522,729.528,1176.088,654.761,1141.05,596.447C1106.779,539.409,1034.691,526.736,968.151,527.193C902.635,527.643,834.532,543.545,799.32,598.796C761.703,657.82,759.152,736.257,797.667,794.699C833.217,848.641,903.571,856.682,968.151,854.974" fill="rgba(165, 221, 235, 0.4)" class="triangle-float3"></path></g><defs><mask id="SvgjsMask2439"><rect width="1440" height="756" fill="#ffffff"></rect></mask><style>
            @keyframes float1 {
                0%{transform: translate(0, 0)}
                50%{transform: translate(-10px, 0)}
                100%{transform: translate(0, 0)}
            }

            .triangle-float1 {
                animation: float1 5s infinite;
            }

            @keyframes float2 {
                0%{transform: translate(0, 0)}
                50%{transform: translate(-5px, -5px)}
                100%{transform: translate(0, 0)}
            }

            .triangle-float2 {
                animation: float2 4s infinite;
            }

            @keyframes float3 {
                0%{transform: translate(0, 0)}
                50%{transform: translate(0, -10px)}
                100%{transform: translate(0, 0)}
            }

            .triangle-float3 {
                animation: float3 6s infinite;
            }
        </style></defs></svg>
